<svg width="147" height="134" viewBox="0 0 147 134" fill="none" xmlns="http://www.w3.org/2000/svg">
<path fill-rule="evenodd" clip-rule="evenodd" d="M28.8652 75.426C28.8652 104.781 52.6622 128.578 82.0173 128.578C111.372 128.578 135.169 104.781 135.169 75.426C135.169 46.0709 111.372 22.2739 82.0173 22.2739C52.6622 22.2739 28.8652 46.0709 28.8652 75.426Z" fill="#FCFBD9"/>
<path fill-rule="evenodd" clip-rule="evenodd" d="M76.8293 106.116C76.8293 121.516 64.3452 134 48.9449 134C33.5451 134 21.0605 121.516 21.0605 106.116C21.0605 90.7156 33.5451 78.2314 48.9449 78.2314C64.3452 78.2314 76.8293 90.7156 76.8293 106.116Z" fill="#1BB5C8"/>
<path d="M60.3965 98.3086L46.4545 112.251L40.8438 106.64" stroke="#081F2D" stroke-width="3.393"/>
<path d="M1.69727 72.6271C1.69727 66.0495 4.20641 59.4717 9.22502 54.4531C14.2436 49.4344 20.8215 46.9253 27.399 46.9253" stroke="#081F2D" stroke-width="3.393"/>
<path d="M14.5488 72.6268C14.5488 69.3378 15.8036 66.0492 18.3127 63.5398C20.8222 61.0306 24.1108 59.7759 27.3997 59.7759" stroke="#081F2D" stroke-width="3.393"/>
<path fill-rule="evenodd" clip-rule="evenodd" d="M107.382 84.3132C105.283 84.9702 98.766 87.1087 94.9896 92.6267C94.3583 93.549 92.8827 95.7518 93.6415 96.9404C94.5729 98.3988 98.3656 97.582 99.8494 97.1588C104.62 95.7978 118.903 89.3036 137.809 79.6611C131.103 79.8782 118.908 80.7063 107.382 84.3132Z" fill="#081F2D"/>
<path fill-rule="evenodd" clip-rule="evenodd" d="M107.382 84.3132C105.283 84.9702 98.766 87.1087 94.9896 92.6267C94.3583 93.549 92.8827 95.7518 93.6415 96.9404C94.5729 98.3988 98.3656 97.582 99.8494 97.1588C104.62 95.7978 118.903 89.3036 137.809 79.6611C131.103 79.8782 118.908 80.7063 107.382 84.3132Z" stroke="#081F2D" stroke-width="2.036" stroke-linecap="round" stroke-linejoin="round"/>
<mask id="mask0_272_16008" style="mask-type:luminance" maskUnits="userSpaceOnUse" x="64" y="13" width="78" height="87">
<path fill-rule="evenodd" clip-rule="evenodd" d="M74.4264 14.4724C73.4543 15.2669 73.2541 16.5113 73.1987 16.8945C72.7597 19.9447 75.476 22.9222 79.8758 26.5441C79.2815 26.1218 73.2319 21.9497 70.4652 24.0444C69.3878 24.8665 69.2211 26.333 69.171 26.827C68.5933 31.9935 81.676 41.1542 90.2809 46.6151C80.3762 40.7099 68.5767 34.7436 65.6101 37.9764C65.0324 38.6043 64.9438 39.4154 64.9102 39.771C64.4879 43.7705 70.8822 46.9538 84.7478 55.6921C81.5479 53.7203 77.8595 51.5645 74.9039 50.1704C73.4484 49.4814 70.9821 48.4203 69.7042 49.4482C69.7042 49.4482 69.1155 49.92 68.9489 50.9426C68.2546 55.1476 85.9311 67.7635 96.1526 81.007C98.9913 84.6791 102.908 90.5454 106.141 99.0005L141.178 95.6784C140.572 93.923 139.733 91.2676 139.011 87.968C136.272 75.4743 138.906 70.7357 137.572 60.0531C137.25 57.4863 135.839 47.6537 129.495 37.6823C125.756 31.8046 118.657 23.2887 115.173 24.7496C113.102 25.6218 112.713 29.8384 113.085 32.538C113.329 34.2934 113.924 35.6268 114.696 36.8267C110.013 33.2436 93.8195 20.9832 83.7647 16.0113C80.8875 14.5911 78.5074 13.7609 76.7216 13.7612C75.7902 13.7612 75.0204 13.9871 74.4264 14.4724Z" fill="white"/>
</mask>
<g mask="url(#mask0_272_16008)">
<path fill-rule="evenodd" clip-rule="evenodd" d="M74.4264 14.4724C73.4543 15.2669 73.2541 16.5113 73.1987 16.8945C72.7597 19.9447 75.476 22.9222 79.8758 26.5441C79.2815 26.1218 73.2319 21.9497 70.4652 24.0444C69.3878 24.8665 69.2211 26.333 69.171 26.827C68.5933 31.9935 81.676 41.1542 90.2809 46.6151C80.3762 40.7099 68.5767 34.7436 65.6101 37.9764C65.0324 38.6043 64.9438 39.4154 64.9102 39.771C64.4879 43.7705 70.8822 46.9538 84.7478 55.6921C81.5479 53.7203 77.8595 51.5645 74.9039 50.1704C73.4484 49.4814 70.9821 48.4203 69.7042 49.4482C69.7042 49.4482 69.1155 49.92 68.9489 50.9426C68.2546 55.1476 85.9311 67.7635 96.1526 81.007C98.9913 84.6791 102.908 90.5454 106.141 99.0005L141.178 95.6784C140.572 93.923 139.733 91.2676 139.011 87.968C136.272 75.4743 138.906 70.7357 137.572 60.0531C137.25 57.4863 135.839 47.6537 129.495 37.6823C125.756 31.8046 118.657 23.2887 115.173 24.7496C113.102 25.6218 112.713 29.8384 113.085 32.538C113.329 34.2934 113.924 35.6268 114.696 36.8267C110.013 33.2436 93.8195 20.9832 83.7647 16.0113C80.8875 14.5911 78.5074 13.7609 76.7216 13.7612C75.7902 13.7612 75.0204 13.9871 74.4264 14.4724Z" fill="url(#paint0_linear_272_16008)"/>
</g>
<path d="M76.7637 50.7222C79.0776 52.1614 81.7375 53.7977 84.7498 55.6957C87.7727 57.6002 90.1669 59.1491 91.4692 59.9956" stroke="#081F2D" stroke-width="2.036"/>
<path d="M82.1152 41.1274C87.5693 45.0505 93.2703 48.5051 95.9715 50.1123" stroke="#081F2D" stroke-width="2.036"/>
<path d="M76.4316 23.4634C77.9132 24.9612 79.8312 26.5471 82.0486 28.2871C86.1202 31.4821 91.6742 35.5677 98.6665 39.9531" stroke="#081F2D" stroke-width="2.036"/>
<mask id="mask1_272_16008" style="mask-type:luminance" maskUnits="userSpaceOnUse" x="76" y="0" width="43" height="73">
<path fill-rule="evenodd" clip-rule="evenodd" d="M76.4648 0H118.129V72.2177H76.4648V0Z" fill="white"/>
</mask>
<g mask="url(#mask1_272_16008)">
<path fill-rule="evenodd" clip-rule="evenodd" d="M112.574 72.2177H82.0198C78.9517 72.2177 76.4648 69.7305 76.4648 66.6624V5.55528C76.4648 2.48722 78.9517 0 82.0198 0H112.574C115.642 0 118.129 2.48722 118.129 5.55528V66.6624C118.129 69.7305 115.642 72.2177 112.574 72.2177Z" fill="#F1E302"/>
</g>
<path d="M91.9805 3.61465H102.611" stroke="#081F2D" stroke-width="2.036"/>
<path d="M89.4297 67.9657H105.163" stroke="white" stroke-width="2.036"/>
<mask id="mask2_272_16008" style="mask-type:luminance" maskUnits="userSpaceOnUse" x="112" y="24" width="30" height="72">
<path fill-rule="evenodd" clip-rule="evenodd" d="M115.174 24.7507C113.102 25.6229 112.713 29.8395 113.085 32.5391C113.736 37.2109 116.874 38.8663 119.207 43.1108C120.535 45.5216 121.741 49.0217 121.59 54.0823C121.59 54.0823 119.73 54.7765 118.113 56.0986C111.041 61.8763 112.858 73.4756 113.102 74.9086L141.178 95.6795C140.573 93.9241 139.739 91.2687 139.012 87.9691C136.279 75.4753 138.906 70.7365 137.573 60.0542C137.251 57.4874 135.84 47.6548 129.495 37.6834C126.045 32.2581 119.73 24.585 116.04 24.585C115.732 24.585 115.442 24.6382 115.174 24.7507Z" fill="white"/>
</mask>
<g mask="url(#mask2_272_16008)">
<path fill-rule="evenodd" clip-rule="evenodd" d="M115.174 24.7507C113.102 25.6229 112.713 29.8395 113.085 32.5391C113.736 37.2109 116.874 38.8663 119.207 43.1108C120.535 45.5216 121.741 49.0217 121.59 54.0823C121.59 54.0823 119.73 54.7765 118.113 56.0986C111.041 61.8763 112.858 73.4756 113.102 74.9086L141.178 95.6795C140.573 93.9241 139.739 91.2687 139.012 87.9691C136.279 75.4753 138.906 70.7365 137.573 60.0542C137.251 57.4874 135.84 47.6548 129.495 37.6834C126.045 32.2581 119.73 24.585 116.04 24.585C115.732 24.585 115.442 24.6382 115.174 24.7507Z" fill="url(#paint1_linear_272_16008)"/>
</g>
<path d="M121.591 54.0817C121.591 47.752 120.409 45.2911 119.208 43.1103C116.875 38.8661 113.736 37.2107 113.086 32.5386" stroke="#081F2D" stroke-width="2.036"/>
<path d="M113.102 74.9078C112.858 73.4745 111.041 61.8752 118.113 56.0978C119.724 54.7817 121.59 54.0815 121.59 54.0815C122.354 53.7742 123.012 53.5877 123.467 53.4756" stroke="#081F2D" stroke-width="2.036"/>
<mask id="mask3_272_16008" style="mask-type:luminance" maskUnits="userSpaceOnUse" x="93" y="79" width="54" height="48">
<path fill-rule="evenodd" clip-rule="evenodd" d="M93.4746 79.6641H146.149V126.147H93.4746V79.6641Z" fill="white"/>
</mask>
<g mask="url(#mask3_272_16008)">
<path fill-rule="evenodd" clip-rule="evenodd" d="M146.149 110.234L97.9581 126.147C96.7989 116.186 95.5564 109.318 94.8283 104.766C94.3885 102.009 93.937 99.272 93.4746 96.5548C93.4809 96.5736 93.5 96.6307 93.5241 96.6892C93.5395 96.7394 93.5614 96.7857 93.5833 96.8321C93.6012 96.8716 93.6247 96.9123 93.6457 96.9411C94.573 98.3973 98.3648 97.5831 99.851 97.1592C104.621 95.7995 118.904 89.3065 137.811 79.6641L146.149 110.234Z" fill="#24BDD6"/>
</g>
<path d="M94.7051 104.001V104.001C98.5313 105.095 102.616 104.857 106.289 103.326L140.388 89.1157" stroke="#081F2D" stroke-width="2.036"/>
<path d="M94.9896 92.6262C94.3583 93.5485 92.8827 95.7516 93.6415 96.9399C94.5729 98.3983 98.3656 97.5815 99.8494 97.1583C104.62 95.7973 118.903 89.3031 137.809 79.6606" stroke="#081F2D" stroke-width="2.036" stroke-linecap="round" stroke-linejoin="round"/>
<defs>
<linearGradient id="paint0_linear_272_16008" x1="171.914" y1="67.1808" x2="112.732" y2="19.7778" gradientUnits="userSpaceOnUse">
<stop stop-color="#FF5607"/>
<stop offset="1" stop-color="#FFA700"/>
</linearGradient>
<linearGradient id="paint1_linear_272_16008" x1="137.151" y1="100.565" x2="137.151" y2="49.5897" gradientUnits="userSpaceOnUse">
<stop stop-color="#FF5607"/>
<stop offset="1" stop-color="#FFA700"/>
</linearGradient>
</defs>
</svg>
