<svg width="27" height="31" viewBox="0 0 27 31" fill="none" xmlns="http://www.w3.org/2000/svg">
<path d="M26.2099 22.3769C25.6692 23.6703 25.0058 24.9088 24.2286 26.0754C22.9414 28.0335 21.1276 30.4745 18.881 30.4948C16.8838 30.5129 16.371 29.1946 13.6595 29.2098C10.948 29.225 10.3838 30.5151 8.38584 30.4999C6.13771 30.4789 4.41971 28.2757 3.1332 26.3169C-0.465259 20.8388 -0.841643 14.4098 1.37748 10.9919C2.04857 9.87505 2.98348 8.93992 4.10018 8.26853C5.21689 7.59714 6.48129 7.21 7.78247 7.14111C10.1648 7.14111 11.6623 8.44647 13.6312 8.44647C15.5414 8.44647 16.7061 7.14111 19.4597 7.14111C20.6039 7.19324 21.7224 7.49761 22.7353 8.03243C23.7481 8.56726 24.6303 9.31932 25.3186 10.2348C20.1704 13.0559 21.0044 20.4109 26.2099 22.3769Z" fill="white"/>
<path d="M17.3723 4.95169C17.936 4.26617 18.3576 3.47529 18.6125 2.62514C18.8674 1.77499 18.9504 0.882583 18.8568 0C17.0411 0.215705 15.3747 1.11187 14.1937 2.50776C13.6145 3.16059 13.1795 3.92828 12.9171 4.76065C12.6547 5.59301 12.5707 6.47134 12.6708 7.33834C13.5831 7.31774 14.4792 7.0926 15.2929 6.67953C16.1066 6.26646 16.8172 5.67599 17.3723 4.95169Z" fill="white"/>
</svg>
