<svg width="24" height="29" viewBox="0 0 24 29" fill="none" xmlns="http://www.w3.org/2000/svg">
<path d="M19.4738 10.8588C14.5462 5.4164 13.4268 1.18359 13.4268 1.18359C13.4268 1.18359 12.5734 1.56444 11.6127 2.43702L10.4033 16.3011L11.6127 28.1494H11.6128C17.5563 28.1494 22.3745 23.3312 22.3745 17.3877C22.3745 14.9326 21.0034 12.5482 19.4738 10.8588Z" fill="#FF6200"/>
<path d="M9.79827 4.81227C9.18187 6.04512 9.03668 7.43507 9.04258 8.5017C9.04825 9.53642 8.31932 10.4294 7.30473 10.6324C6.59587 10.7741 5.86308 10.5523 5.35191 10.0411L4.35596 9.04514C4.35596 9.04514 2.87951 11.081 2.6265 11.464C1.49002 13.1843 0.834338 15.2501 0.850892 17.4701C0.894997 23.3988 5.68343 28.1499 11.6124 28.1499V2.4375C10.984 3.00826 10.3097 3.78935 9.79827 4.81227Z" fill="#FD7D21"/>
<path d="M20.1041 10.2882C17.6453 7.57257 16.1841 5.18198 15.3911 3.65468C14.5324 2.00039 14.251 0.974569 14.2488 0.966406L13.9932 0L13.0803 0.407209C13.0283 0.430396 12.4033 0.715266 11.6125 1.32775L11.0078 2.3932L11.6125 3.64702C12.0851 3.11691 12.5725 2.72064 12.9645 2.44632C13.6041 4.07311 15.2254 7.43402 18.8433 11.4298C19.6493 12.32 21.5239 14.6825 21.5239 17.3879C21.5239 22.8531 17.0777 27.2993 11.6126 27.2993L11.0078 28.3953L11.6125 29.0001C18.0155 29 23.2247 23.7909 23.2247 17.3879C23.2247 15.0663 22.0873 12.4786 20.1041 10.2882Z" fill="#FFB62D"/>
<path d="M4.62362 24.4298C2.75861 22.5791 1.72072 20.1052 1.70105 17.4639C1.68631 15.4866 2.25163 13.574 3.33583 11.9329C3.46821 11.7325 3.99923 10.9917 4.46018 10.3524L4.75038 10.6426C5.46423 11.3564 6.48115 11.6644 7.4713 11.4664C8.88222 11.1842 9.90061 9.93553 9.89273 8.49723C9.8878 7.60713 9.99937 6.31135 10.5586 5.19273C10.862 4.58602 11.2323 4.0736 11.6122 3.64745V1.32812C10.7793 1.97332 9.76246 2.98208 9.03744 4.43211C8.32796 5.85113 8.18606 7.43105 8.19201 8.50647C8.19547 9.13233 7.75204 9.67577 7.13768 9.79862C6.70694 9.88468 6.26385 9.75077 5.95296 9.43988L4.25241 7.73933L3.66742 8.54598C3.6067 8.62971 2.17708 10.6014 1.91681 10.9953C0.645862 12.9192 -0.0168516 15.1604 0.000325629 17.4765C0.023342 20.5698 1.23981 23.4679 3.42563 25.637C5.61128 27.8059 8.51867 29.0004 11.6122 29.0004V27.2997C8.97049 27.2997 6.48857 26.2805 4.62362 24.4298Z" fill="#FDCB02"/>
<path d="M11.6127 11.6807C11.6064 11.6807 11.6001 11.6809 11.5939 11.6809L10.1768 18.3324L11.5939 24.9838C11.6001 24.9838 11.6064 24.984 11.6127 24.984C15.2863 24.984 18.2644 22.006 18.2644 18.3324C18.2644 14.6587 15.2863 11.6807 11.6127 11.6807Z" fill="#ED3800"/>
<path d="M4.96094 18.3321C4.96094 21.9994 7.92881 24.9734 11.5937 24.9836V11.6807C7.92886 11.6909 4.96094 14.6648 4.96094 18.3321Z" fill="#FF4B00"/>
<path d="M15.2213 14.4277H13.336L11.5936 16.9794L11.0078 19.3246L11.5936 19.7403L15.2213 14.4277Z" fill="#D9E7EC"/>
<path d="M14.4734 17.998C13.2909 17.998 12.3984 18.7901 12.3984 20.1734C12.3984 21.5678 13.2909 22.3487 14.4734 22.3487C15.6559 22.3487 16.5483 21.5678 16.5483 20.1734C16.5483 18.7901 15.6558 17.998 14.4734 17.998ZM14.4734 21.1439C14.228 21.1439 13.9825 20.9207 13.9825 20.1733C13.9825 19.4259 14.228 19.2028 14.4734 19.2028C14.7188 19.2028 14.9642 19.4259 14.9642 20.1733C14.9642 20.9207 14.7188 21.1439 14.4734 21.1439Z" fill="#D9E7EC"/>
<path d="M9.88818 22.2366L11.5928 19.7404V16.9795L8.00293 22.2366H9.88818Z" fill="#FAFCFD"/>
<path d="M10.8257 16.4917C10.8257 15.1085 9.93323 14.3164 8.75072 14.3164C7.56821 14.3164 6.67578 15.1084 6.67578 16.4917C6.67578 17.8862 7.56821 18.6671 8.75072 18.6671C9.93323 18.6671 10.8257 17.8862 10.8257 16.4917ZM8.25989 16.4917C8.25989 15.7443 8.5053 15.5212 8.75072 15.5212C8.99613 15.5212 9.24154 15.7443 9.24154 16.4917C9.24154 17.2392 8.99613 17.4623 8.75072 17.4623C8.5053 17.4623 8.25989 17.2392 8.25989 16.4917Z" fill="#FAFCFD"/>
</svg>
