<svg width="28" height="28" viewBox="0 0 28 28" fill="none" xmlns="http://www.w3.org/2000/svg">
<path d="M13.9999 2.24023C18.1274 2.24023 21.4736 5.58623 21.4736 9.71399C21.4736 14.0484 16.0195 19.5862 14.4297 21.1083C14.1875 21.3402 13.8123 21.3402 13.5698 21.1083C11.9802 19.5862 6.52583 14.0484 6.52583 9.71399C6.52611 5.58623 9.87239 2.24023 13.9999 2.24023ZM13.9999 12.234C15.3918 12.234 16.5199 11.1059 16.5199 9.71399C16.5199 8.32211 15.3918 7.19399 13.9999 7.19399C12.608 7.19399 11.4799 8.32211 11.4799 9.71399C11.4799 11.1059 12.608 12.234 13.9999 12.234Z" fill="#7EE1F2"/>
<path d="M9.7886 18.9248C10.1831 19.391 10.5712 19.8275 10.9447 20.2307C10.173 20.576 9.69508 21.0506 9.69508 21.575C9.69508 22.6298 11.6226 23.4849 14.0001 23.4849C16.3776 23.4849 18.3051 22.6298 18.3051 21.575C18.3051 21.0506 17.8271 20.576 17.0554 20.2307C17.429 19.8275 17.817 19.3913 18.2116 18.9248C20.5115 19.575 22.0498 20.7372 22.0498 22.0672C22.0504 24.1068 18.4462 25.7599 14.0004 25.7599C9.55452 25.7599 5.95036 24.1068 5.95036 22.0672C5.95036 20.7372 7.48868 19.575 9.7886 18.9248Z" fill="#33C1D9"/>
</svg>
