<svg width="35" height="35" viewBox="0 0 35 35" fill="none" xmlns="http://www.w3.org/2000/svg">
<path fill-rule="evenodd" clip-rule="evenodd" d="M17.1013 4.71769C19.5887 4.63486 22.1017 5.31347 24.2713 6.76169C26.708 8.38997 28.411 10.7945 29.1954 13.4825C29.412 13.456 29.6714 13.4677 29.9794 13.5548C31.1293 13.8811 31.9942 14.8234 32.3831 15.6533C32.8875 16.7348 33.1002 18.1651 32.8758 19.6417C32.653 21.1136 32.0312 22.327 31.2534 23.0803C30.4733 23.8339 29.5924 24.0789 28.7174 23.895C27.4147 23.6169 26.7687 23.4089 26.9511 22.1951L27.8343 16.3116C27.6562 13.1274 26.0077 10.1299 23.2504 8.28653C19.5599 5.82136 14.7213 5.97925 11.2011 8.68164C8.75226 10.5592 7.33049 13.3724 7.16638 16.3256L7.78393 20.4413C9.16138 24.2108 12.5762 26.8218 16.5277 27.1924H19.1589C19.8379 27.1924 20.3847 27.7391 20.3847 28.4174V29.0637C20.3847 29.7423 19.8379 30.2891 19.1589 30.2891H15.8413C15.1627 30.2891 14.6183 29.7423 14.6183 29.0637V28.7258C11.6386 27.9985 9.03771 26.1673 7.3441 23.6134L6.28127 23.8954C5.41638 24.1198 4.52504 23.8339 3.74532 23.0806C2.96754 22.327 2.3461 21.114 2.12288 19.6421C1.89771 18.1655 2.11665 16.7375 2.61521 15.6536C3.11571 14.5698 3.86121 13.8815 4.72182 13.6345C5.08232 13.5307 5.47354 13.4926 5.80915 13.4825C6.51849 11.0519 7.97876 8.84147 10.0834 7.22758C12.1527 5.63975 14.614 4.79936 17.1013 4.71769Z" fill="#33C1D9" fill-opacity="0.5"/>
<path fill-rule="evenodd" clip-rule="evenodd" d="M13.218 15.3023C12.3411 15.3023 11.6302 16.0132 11.6283 16.8925C11.6302 17.7694 12.3411 18.4823 13.218 18.4823C14.0973 18.4823 14.8101 17.7694 14.8101 16.8925C14.8101 16.0136 14.0969 15.3023 13.218 15.3023ZM17.4997 15.3023C16.6208 15.3023 15.9099 16.0132 15.9099 16.8925C15.9099 17.7694 16.6208 18.4823 17.4997 18.4823C18.3794 18.4823 19.0903 17.7694 19.0903 16.8925C19.0903 16.0136 18.3794 15.3023 17.4997 15.3023ZM21.7798 15.3023C20.9029 15.3023 20.19 16.0132 20.19 16.8925C20.19 17.7694 20.9029 18.4823 21.7798 18.4823C22.6587 18.4823 23.37 17.7694 23.37 16.8925C23.37 16.0136 22.6587 15.3023 21.7798 15.3023ZM17.4997 8.47266C22.1625 8.47266 25.9199 12.1064 25.9199 16.8925C25.9199 19.1912 25.0508 21.2228 23.6348 22.7134L24.1373 24.9658C24.3029 25.707 23.7888 26.2056 23.1226 25.8346L20.9231 24.6077C19.8778 25.0615 18.7216 25.3123 17.4997 25.3123C12.8354 25.3123 9.08025 21.6809 9.08025 16.8925C9.08025 12.1064 12.8354 8.47266 17.4997 8.47266Z" fill="#33C1D9"/>
</svg>
