<svg width="31" height="35" viewBox="0 0 31 35" fill="none" xmlns="http://www.w3.org/2000/svg">
<mask id="mask0_271_23313" style="mask-type:luminance" maskUnits="userSpaceOnUse" x="0" y="0" width="31" height="35">
<path d="M22.5526 12.3444L15.3768 8.20086L1.53528 0.208805C0.767636 -0.234724 0 0.0339684 0 0.961115V33.523C0 34.2181 0.547578 34.5175 1.21543 34.1328L15.3743 25.9557L22.55 21.813L29.4478 17.8314C30.2572 17.364 30.1796 16.7226 29.4964 16.355C28.8132 15.9874 22.5526 12.3444 22.5526 12.3444Z" fill="white"/>
</mask>
<g mask="url(#mask0_271_23313)">
<path d="M0 -0.546875V34.7077L17.777 17.0808L0 -0.546875Z" fill="url(#paint0_linear_271_23313)"/>
<path d="M22.5518 12.3462L15.376 8.20348L0 -0.674805V-0.546843L17.777 17.0809L22.5518 12.3462Z" fill="url(#paint1_linear_271_23313)"/>
<path d="M0 34.7055V34.8334L15.376 25.9552L22.5518 21.8125L17.7753 17.0786L0 34.7055Z" fill="url(#paint2_linear_271_23313)"/>
<path d="M22.5519 12.3457L17.7754 17.0804L22.5519 21.8142L30.7529 17.0795L22.5519 12.3457Z" fill="url(#paint3_linear_271_23313)"/>
</g>
<defs>
<linearGradient id="paint0_linear_271_23313" x1="8.8885" y1="-0.546875" x2="8.8885" y2="34.7077" gradientUnits="userSpaceOnUse">
<stop stop-color="#006AA2"/>
<stop offset="0.345" stop-color="#2F8DA6"/>
<stop offset="0.786" stop-color="#66B6AC"/>
<stop offset="1" stop-color="#7CC6AF"/>
</linearGradient>
<linearGradient id="paint1_linear_271_23313" x1="0" y1="8.20304" x2="22.5518" y2="8.20304" gradientUnits="userSpaceOnUse">
<stop stop-color="#4AB59D"/>
<stop offset="1" stop-color="#DFE385"/>
</linearGradient>
<linearGradient id="paint2_linear_271_23313" x1="11.2759" y1="17.0786" x2="11.2759" y2="34.8334" gradientUnits="userSpaceOnUse">
<stop stop-color="#E4282D"/>
<stop offset="0.316" stop-color="#BA2D4E"/>
<stop offset="0.777" stop-color="#83357B"/>
<stop offset="1" stop-color="#6E388D"/>
</linearGradient>
<linearGradient id="paint3_linear_271_23313" x1="24.2641" y1="12.3457" x2="24.2641" y2="21.8142" gradientUnits="userSpaceOnUse">
<stop stop-color="#F07165"/>
<stop offset="0.659" stop-color="#FAA460"/>
<stop offset="1" stop-color="#FFBA5E"/>
</linearGradient>
</defs>
</svg>
