<svg width="30" height="30" viewBox="0 0 30 30" fill="none" xmlns="http://www.w3.org/2000/svg">
<mask id="mask0_478_9667" style="mask-type:luminance" maskUnits="userSpaceOnUse" x="0" y="0" width="30" height="30">
<path d="M30 0H0V30H30V0Z" fill="white"/>
</mask>
<g mask="url(#mask0_478_9667)">
<path opacity="0.4" d="M21.9113 9.7125C21.8238 9.7 21.7363 9.7 21.6488 9.7125C19.7113 9.65 18.1738 8.0625 18.1738 6.1125C18.1738 4.125 19.7863 2.5 21.7863 2.5C23.7738 2.5 25.3988 4.1125 25.3988 6.1125C25.3863 8.0625 23.8488 9.65 21.9113 9.7125Z" fill="#24BDD6"/>
<path opacity="0.4" d="M25.9875 18.3755C24.5875 19.313 22.625 19.663 20.8125 19.4255C21.2875 18.4005 21.5375 17.263 21.55 16.063C21.55 14.813 21.275 13.6255 20.75 12.588C22.6 12.338 24.5625 12.688 25.975 13.6255C27.95 14.9255 27.95 17.063 25.9875 18.3755Z" fill="#24BDD6"/>
<path opacity="0.4" d="M8.04805 9.7125C8.13555 9.7 8.22305 9.7 8.31055 9.7125C10.248 9.65 11.7855 8.0625 11.7855 6.1125C11.7855 4.125 10.173 2.5 8.17305 2.5C6.18555 2.5 4.56055 4.1125 4.56055 6.1125C4.57305 8.0625 6.11055 9.65 8.04805 9.7125Z" fill="#24BDD6"/>
<path opacity="0.4" d="M8.18593 16.0623C8.18593 17.2748 8.44842 18.4248 8.92342 19.4623C7.16092 19.6498 5.32344 19.2748 3.97344 18.3873C1.99844 17.0748 1.99844 14.9373 3.97344 13.6248C5.31094 12.7248 7.19842 12.3623 8.97344 12.5623C8.46094 13.6123 8.18593 14.7998 8.18593 16.0623Z" fill="#24BDD6"/>
<path d="M15.1481 19.8375C15.0481 19.825 14.9356 19.825 14.8231 19.8375C12.5231 19.7625 10.6855 17.875 10.6855 15.55C10.6855 13.175 12.5981 11.25 14.9856 11.25C17.3606 11.25 19.2856 13.175 19.2856 15.55C19.2856 17.875 17.4606 19.7625 15.1481 19.8375Z" fill="#24BDD6"/>
<path d="M11.0855 22.4248C9.19805 23.6873 9.19805 25.7623 11.0855 27.0123C13.2356 28.4498 16.7606 28.4498 18.9106 27.0123C20.7981 25.7498 20.7981 23.6748 18.9106 22.4248C16.7731 20.9873 13.2481 20.9873 11.0855 22.4248Z" fill="#24BDD6"/>
</g>
</svg>
