<svg width="286" height="215" viewBox="0 0 286 215" fill="none" xmlns="http://www.w3.org/2000/svg">
<path fill-rule="evenodd" clip-rule="evenodd" d="M82.2324 88.5371C82.2324 122.035 109.387 149.19 142.885 149.19C176.382 149.19 203.537 122.035 203.537 88.5371C203.537 55.0397 176.382 27.8848 142.885 27.8848C109.387 27.8848 82.2324 55.0397 82.2324 88.5371Z" fill="#FCFBD9"/>
<path fill-rule="evenodd" clip-rule="evenodd" d="M191.405 102.591L142.883 130.605L94.3613 102.591L142.883 74.5771L191.405 102.591Z" fill="white"/>
<path fill-rule="evenodd" clip-rule="evenodd" d="M191.405 102.591L142.883 130.605L94.3613 102.591L142.883 74.5771L191.405 102.591Z" stroke="#081F2D" stroke-linejoin="round"/>
<path d="M142.884 74.5767V130.605" stroke="#081F2D" stroke-linejoin="round"/>
<path fill-rule="evenodd" clip-rule="evenodd" d="M93.5965 74.1007L109.497 64.9204C112.022 69.2934 117.665 70.8052 122.038 68.2806L149.578 115.982C145.206 118.507 143.671 124.111 146.218 128.523L130.317 137.703C127.77 133.291 122.189 131.795 117.777 134.343L90.2363 86.641C94.6486 84.0935 96.1211 78.4736 93.5965 74.1007Z" fill="#F1E302"/>
<path fill-rule="evenodd" clip-rule="evenodd" d="M98.3958 79.0631L111.397 71.5566C113.462 75.1324 118.075 76.3686 121.651 74.3044L144.17 113.308C140.595 115.373 139.34 119.955 141.423 123.563L128.421 131.069C126.338 127.461 121.775 126.238 118.167 128.321L95.6484 89.3169C99.256 87.2341 100.46 82.6384 98.3958 79.0631Z" stroke="#081F2D"/>
<path fill-rule="evenodd" clip-rule="evenodd" d="M144.046 126.248C145.949 127.418 146.544 129.907 145.375 131.81C144.206 133.712 141.716 134.308 139.813 133.138C137.91 131.969 137.316 129.478 138.485 127.576C139.654 125.673 142.144 125.079 144.046 126.248ZM126.449 115.422L134.584 133.077C135.951 136.043 138.966 137.895 142.228 137.774L161.653 137.054C164.355 136.954 166.829 135.511 168.245 133.207L199.849 81.7728L158.507 56.3706L126.904 107.804C125.488 110.109 125.318 112.968 126.449 115.422Z" fill="#1BB5C8"/>
<path fill-rule="evenodd" clip-rule="evenodd" d="M148.546 109.927L151.782 111.916L153.961 108.369L154.511 108.81L152.378 112.282L155.986 114.499L155.567 115.181L147.531 110.243L150.427 105.531L151.022 105.897L148.546 109.927Z" fill="#081F2D"/>
<path fill-rule="evenodd" clip-rule="evenodd" d="M156.722 104.512L157.727 102.876C158.634 101.4 158.302 100.274 157.26 99.6336C156.206 98.9858 155.097 99.2611 154.206 100.712L153.2 102.348L156.722 104.512ZM163.588 101.984L163.649 102.022L163.169 102.804L158.264 103.308L157.304 104.871L160.64 106.92L160.221 107.602L152.186 102.665L153.626 100.321C154.723 98.5355 156.26 98.0629 157.637 98.9084C158.815 99.6327 159.356 100.921 158.68 102.521L163.588 101.984Z" fill="#081F2D"/>
<path fill-rule="evenodd" clip-rule="evenodd" d="M167.643 94.1905L168.239 94.5562L165.305 99.3303L157.27 94.3929L160.165 89.6807L160.761 90.0464L158.284 94.0768L161.359 95.9662L163.539 92.4198L164.076 92.8524L161.942 96.3244L165.129 98.2825L167.643 94.1905Z" fill="#081F2D"/>
<path fill-rule="evenodd" clip-rule="evenodd" d="M172.528 86.2413L173.123 86.6067L170.19 91.3811L162.154 86.4433L165.05 81.7314L165.645 82.0972L163.169 86.1276L166.244 88.017L168.423 84.4706L168.96 84.9028L166.827 88.3752L170.014 90.3333L172.528 86.2413Z" fill="#081F2D"/>
<path fill-rule="evenodd" clip-rule="evenodd" d="M191.405 158.619L142.883 186.633V130.605L191.405 102.591V158.619Z" fill="#C3E1A1"/>
<path fill-rule="evenodd" clip-rule="evenodd" d="M203.535 123.602L155.013 151.616L142.883 130.605L191.405 102.591L203.535 123.602Z" fill="white"/>
<path fill-rule="evenodd" clip-rule="evenodd" d="M203.535 123.602L155.013 151.616L142.883 130.605L191.405 102.591L203.535 123.602Z" stroke="#081F2D" stroke-linejoin="round"/>
<path fill-rule="evenodd" clip-rule="evenodd" d="M142.883 186.634L94.3613 158.62V102.591L142.883 130.606V186.634Z" fill="#C3E1A1"/>
<path d="M97.7227 152.553L106.975 157.895" stroke="#081F2D" stroke-linejoin="round"/>
<path d="M97.7227 155.708L106.975 161.049" stroke="#081F2D" stroke-linejoin="round"/>
<path fill-rule="evenodd" clip-rule="evenodd" d="M142.885 130.605L130.754 151.616L82.2324 123.602L94.3628 102.591L142.885 130.605Z" fill="white"/>
<path fill-rule="evenodd" clip-rule="evenodd" d="M142.885 130.605L130.754 151.616L82.2324 123.602L94.3628 102.591L142.885 130.605Z" stroke="#081F2D" stroke-linejoin="round"/>
<path d="M142.884 130.605V186.633" stroke="#081F2D" stroke-linejoin="round"/>
<path fill-rule="evenodd" clip-rule="evenodd" d="M150.631 43.0344C150.631 46.9137 142.884 51.9995 142.884 51.9995C142.884 51.9995 135.137 46.9137 135.137 43.0344C135.137 40.4672 137.218 38.3862 139.785 38.3862C140.976 38.3862 142.061 38.8338 142.884 39.5706C143.706 38.8338 144.792 38.3862 145.983 38.3862C148.55 38.3862 150.631 40.4672 150.631 43.0344Z" fill="#F16091"/>
<path fill-rule="evenodd" clip-rule="evenodd" d="M85.5659 135.316C79.603 141.279 69.9353 141.279 63.9722 135.316C58.0093 129.353 58.0093 119.685 63.9722 113.722C69.9353 107.759 79.603 107.759 85.5659 113.722C91.5288 119.685 91.5288 129.353 85.5659 135.316Z" fill="#1BB5C8"/>
<path fill-rule="evenodd" clip-rule="evenodd" d="M78.6418 121.363C78.6418 121.995 78.129 122.508 77.4966 122.508C76.8641 122.508 76.3516 121.995 76.3516 121.363C76.3516 120.731 76.8641 120.218 77.4966 120.218C78.129 120.218 78.6418 120.731 78.6418 121.363Z" fill="#081F2D"/>
<path d="M79.4039 127.386C77.309 129.481 74.2992 130.104 71.6602 129.254" stroke="#081F2D" stroke-width="2"/>
<path fill-rule="evenodd" clip-rule="evenodd" d="M71.6613 121.363C71.6613 121.995 71.1486 122.508 70.5161 122.508C69.8836 122.508 69.3711 121.995 69.3711 121.363C69.3711 120.731 69.8836 120.218 70.5161 120.218C71.1486 120.218 71.6613 120.731 71.6613 121.363Z" fill="#081F2D"/>
<path fill-rule="evenodd" clip-rule="evenodd" d="M89.7577 57.6708C86.6135 69.405 59.057 78.5102 59.057 78.5102C59.057 78.5102 39.7449 56.8468 42.8891 45.1125C44.9697 37.3473 52.952 32.7387 60.7173 34.8194C64.3187 35.7843 67.2406 38.0179 69.131 40.9137C72.2159 39.3511 75.8631 38.8777 79.4646 39.8426C87.2298 41.9233 91.8383 49.9055 89.7577 57.6708Z" fill="#F16091"/>
<path fill-rule="evenodd" clip-rule="evenodd" d="M169.996 113.888C168.542 115.934 164.095 122.376 164.472 129.996C164.535 131.27 164.715 134.29 166.224 134.847C168.077 135.529 170.96 132.169 172.016 130.76C175.412 126.231 183.909 110.471 194.434 88.6602C188.489 93.486 177.98 102.656 169.996 113.888Z" fill="#081F2D"/>
<mask id="mask0_272_15236" style="mask-type:luminance" maskUnits="userSpaceOnUse" x="125" y="31" width="81" height="95">
<path fill-rule="evenodd" clip-rule="evenodd" d="M186.32 31.1086C178.637 31.375 172.881 42.8739 170.808 49.3715C169.94 52.0974 168.672 57.2197 169.305 64.034C168.805 63.3433 158.32 49.3211 146.231 51.7803C144.982 52.0338 139.391 53.3401 137.826 57.4857C136.748 60.3317 137.826 63.8503 140.044 66.8611C139.417 66.7278 132.241 65.2956 129.762 68.9657C129.66 69.118 128.995 70.1258 128.982 71.4825C128.963 73.2321 130.028 75.0893 131.721 76.8136C130.999 76.9723 128.348 77.6315 126.852 80.0464C125.781 81.7707 125.737 83.6851 125.927 84.7501C126.384 87.2729 128.995 89.5048 132.311 91.1082C131.48 91.3238 130.7 91.6409 129.99 92.0781C129.299 92.5032 127.816 93.4159 127.385 95.0575C127.22 95.6788 126.567 98.8166 133.445 104.471C140.97 110.652 148.063 112.085 155.562 114.677C160.837 116.496 168.462 119.628 177.293 125.226L205.418 97.7441C197.114 92.5915 192.437 87.1017 190.58 83.8184C185.191 74.3096 184.615 58.6651 189.362 46.1068C190.96 41.8726 193.92 36.0024 191.391 32.9283C190.045 31.2942 187.686 31.1025 186.639 31.1025C186.512 31.1025 186.404 31.105 186.32 31.1086Z" fill="white"/>
</mask>
<g mask="url(#mask0_272_15236)">
<path fill-rule="evenodd" clip-rule="evenodd" d="M186.32 31.1086C178.637 31.375 172.881 42.8739 170.808 49.3715C169.94 52.0974 168.672 57.2197 169.305 64.034C168.805 63.3433 158.32 49.3211 146.231 51.7803C144.982 52.0338 139.391 53.3401 137.826 57.4857C136.748 60.3317 137.826 63.8503 140.044 66.8611C139.417 66.7278 132.241 65.2956 129.762 68.9657C129.66 69.118 128.995 70.1258 128.982 71.4825C128.963 73.2321 130.028 75.0893 131.721 76.8136C130.999 76.9723 128.348 77.6315 126.852 80.0464C125.781 81.7707 125.737 83.6851 125.927 84.7501C126.384 87.2729 128.995 89.5048 132.311 91.1082C131.48 91.3238 130.7 91.6409 129.99 92.0781C129.299 92.5032 127.816 93.4159 127.385 95.0575C127.22 95.6788 126.567 98.8166 133.445 104.471C140.97 110.652 148.063 112.085 155.562 114.677C160.837 116.496 168.462 119.628 177.293 125.226L205.418 97.7441C197.114 92.5915 192.437 87.1017 190.58 83.8184C185.191 74.3096 184.615 58.6651 189.362 46.1068C190.96 41.8726 193.92 36.0024 191.391 32.9283C190.045 31.2942 187.686 31.1025 186.639 31.1025C186.512 31.1025 186.404 31.105 186.32 31.1086Z" fill="url(#paint0_linear_272_15236)"/>
</g>
<path d="M170.3 70.0316C167.94 60.2251 169.694 52.8523 170.805 49.3721" stroke="#081F2D"/>
<path d="M171.566 99.6275C170.183 98.1825 168.228 95.7622 166.872 92.2988C164.725 86.8158 165.337 81.9302 165.752 79.7466" stroke="#081F2D"/>
<mask id="mask1_272_15236" style="mask-type:luminance" maskUnits="userSpaceOnUse" x="127" y="90" width="21" height="14">
<path fill-rule="evenodd" clip-rule="evenodd" d="M129.992 92.0788C129.412 92.4352 127.831 93.3426 127.385 95.0582C126.795 97.3219 128.563 99.4433 129.032 100.006C131.847 103.383 136.568 103.378 138.31 103.377C140.068 103.375 145.004 103.37 146.602 100.327C147.352 98.8967 147.039 97.4206 147 97.25C146.185 93.6675 140.52 90.7285 135.331 90.7285C133.392 90.7285 131.52 91.1386 129.992 92.0788Z" fill="white"/>
</mask>
<g mask="url(#mask1_272_15236)">
<path fill-rule="evenodd" clip-rule="evenodd" d="M129.992 92.0788C129.412 92.4352 127.831 93.3426 127.385 95.0582C126.795 97.3219 128.563 99.4433 129.032 100.006C131.847 103.383 136.568 103.378 138.31 103.377C140.068 103.375 145.004 103.37 146.602 100.327C147.352 98.8967 147.039 97.4206 147 97.25C146.185 93.6675 140.52 90.7285 135.331 90.7285C133.392 90.7285 131.52 91.1386 129.992 92.0788Z" fill="url(#paint1_linear_272_15236)"/>
</g>
<mask id="mask2_272_15236" style="mask-type:luminance" maskUnits="userSpaceOnUse" x="125" y="76" width="25" height="18">
<path fill-rule="evenodd" clip-rule="evenodd" d="M131.731 76.8146C130.907 77.0313 128.307 77.7155 126.855 80.0461C125.821 81.7052 125.727 83.6214 125.932 84.7504C127.194 91.7031 144.798 96.4525 148.543 91.835C149.58 90.5559 150.252 87.6973 149.226 85.508C148.799 84.5974 148.192 84.0447 147.837 83.7355C144.42 80.7568 139.531 76.4961 134.202 76.4961C133.387 76.4961 132.562 76.5955 131.731 76.8146Z" fill="white"/>
</mask>
<g mask="url(#mask2_272_15236)">
<path fill-rule="evenodd" clip-rule="evenodd" d="M131.731 76.8146C130.907 77.0313 128.307 77.7155 126.855 80.0461C125.821 81.7052 125.727 83.6214 125.932 84.7504C127.194 91.7031 144.798 96.4525 148.543 91.835C149.58 90.5559 150.252 87.6973 149.226 85.508C148.799 84.5974 148.192 84.0447 147.837 83.7355C144.42 80.7568 139.531 76.4961 134.202 76.4961C133.387 76.4961 132.562 76.5955 131.731 76.8146Z" fill="url(#paint2_linear_272_15236)"/>
</g>
<mask id="mask3_272_15236" style="mask-type:luminance" maskUnits="userSpaceOnUse" x="128" y="66" width="26" height="18">
<path fill-rule="evenodd" clip-rule="evenodd" d="M129.769 68.9612C129.028 70.0497 128.988 71.2045 128.985 71.4808C128.905 78.3445 145.547 86.8401 151.425 82.6284C151.715 82.4207 153.291 81.2424 153.648 79.3186C154.076 77.0071 152.492 74.9875 151.284 73.4928C146.901 68.0681 140.574 66.9459 140.056 66.8619C139.446 66.7633 137.949 66.5205 136.244 66.5205C133.877 66.5205 131.111 66.9888 129.769 68.9612Z" fill="white"/>
</mask>
<g mask="url(#mask3_272_15236)">
<path fill-rule="evenodd" clip-rule="evenodd" d="M129.769 68.9612C129.028 70.0497 128.988 71.2045 128.985 71.4808C128.905 78.3445 145.547 86.8401 151.425 82.6284C151.715 82.4207 153.291 81.2424 153.648 79.3186C154.076 77.0071 152.492 74.9875 151.284 73.4928C146.901 68.0681 140.574 66.9459 140.056 66.8619C139.446 66.7633 137.949 66.5205 136.244 66.5205C133.877 66.5205 131.111 66.9888 129.769 68.9612Z" fill="url(#paint3_linear_272_15236)"/>
</g>
<mask id="mask4_272_15236" style="mask-type:luminance" maskUnits="userSpaceOnUse" x="137" y="54" width="22" height="20">
<path fill-rule="evenodd" clip-rule="evenodd" d="M138.731 55.8629C138.362 56.3481 138.052 56.8864 137.827 57.4845C135.594 63.389 142.634 72.1735 149.899 73.3404C150.627 73.4569 155.134 74.1805 157.227 71.5082C159.534 68.562 157.072 63.833 156.804 63.3343C154.392 58.8459 149.34 57.851 148.489 57.6969L140.714 54.0146C139.977 54.5209 139.287 55.1308 138.731 55.8629Z" fill="white"/>
</mask>
<g mask="url(#mask4_272_15236)">
<path fill-rule="evenodd" clip-rule="evenodd" d="M138.731 55.8629C138.362 56.3481 138.052 56.8864 137.827 57.4845C135.594 63.389 142.634 72.1735 149.899 73.3404C150.627 73.4569 155.134 74.1805 157.227 71.5082C159.534 68.562 157.072 63.833 156.804 63.3343C154.392 58.8459 149.34 57.851 148.489 57.6969L140.714 54.0146C139.977 54.5209 139.287 55.1308 138.731 55.8629Z" fill="url(#paint4_linear_272_15236)"/>
</g>
<path d="M138.305 103.378C142.169 103.797 145.408 102.629 146.597 100.328C146.694 100.139 147.352 98.8199 146.995 97.2515C146.689 95.9048 145.697 94.6493 144.303 93.6064" stroke="#081F2D"/>
<path d="M147.83 83.7378C148.274 84.1128 148.827 84.6877 149.219 85.5099C150.292 87.7632 149.542 90.5968 148.536 91.837C145.66 95.3844 134.603 93.4039 129.061 89.1428" stroke="#081F2D"/>
<path d="M151.277 73.4946C151.667 73.8679 154.211 76.3739 153.64 79.3208C153.275 81.2106 151.808 82.351 151.418 82.6305C146.557 86.1137 134.333 80.9052 130.295 75.117" stroke="#081F2D"/>
<path d="M148.484 57.6982C149.334 57.852 154.387 58.8465 156.799 63.3353C157.067 63.8344 159.529 68.563 157.221 71.5092C155.129 74.1819 150.621 73.4579 149.893 73.341C145.161 72.5813 140.525 68.5895 138.484 64.2669" stroke="#081F2D"/>
<mask id="mask5_272_15236" style="mask-type:luminance" maskUnits="userSpaceOnUse" x="165" y="89" width="59" height="70">
<path fill-rule="evenodd" clip-rule="evenodd" d="M165.986 89.063H223.293V158.809H165.986V89.063Z" fill="white"/>
</mask>
<g mask="url(#mask5_272_15236)">
<path fill-rule="evenodd" clip-rule="evenodd" d="M223.293 111.087L190.485 158.809C182.557 150.558 176.687 145.174 172.884 141.54C170.581 139.339 168.282 137.162 165.986 135.012C166.005 135.026 166.062 135.064 166.124 135.1C166.173 135.136 166.224 135.163 166.276 135.189C166.32 135.213 166.37 135.234 166.409 135.246C168.256 135.929 171.14 132.572 172.198 131.161C175.594 126.633 184.091 110.875 194.617 89.063L223.293 111.087Z" fill="#24BDD6"/>
</g>
<path d="M172.246 140.93V140.93C176.478 139.283 180.025 136.248 182.307 132.322L203.484 95.873" stroke="#081F2D"/>
<path d="M164.654 130.398C164.717 131.672 164.897 134.692 166.407 135.248C168.26 135.931 171.142 132.571 172.199 131.162C175.595 126.633 184.092 110.873 194.616 89.0615" stroke="#081F2D" stroke-linecap="round" stroke-linejoin="round"/>
<defs>
<linearGradient id="paint0_linear_272_15236" x1="240.367" y1="89.0066" x2="175.739" y2="42.8095" gradientUnits="userSpaceOnUse">
<stop stop-color="#FF5607"/>
<stop offset="1" stop-color="#FFA700"/>
</linearGradient>
<linearGradient id="paint1_linear_272_15236" x1="181.666" y1="101.145" x2="158.656" y2="73.2745" gradientUnits="userSpaceOnUse">
<stop stop-color="#FF5607"/>
<stop offset="1" stop-color="#FFA700"/>
</linearGradient>
<linearGradient id="paint2_linear_272_15236" x1="181.984" y1="88.8169" x2="155.282" y2="63.3506" gradientUnits="userSpaceOnUse">
<stop stop-color="#FF5607"/>
<stop offset="1" stop-color="#FFA700"/>
</linearGradient>
<linearGradient id="paint3_linear_272_15236" x1="185.454" y1="78.3321" x2="159.717" y2="52.2066" gradientUnits="userSpaceOnUse">
<stop stop-color="#FF5607"/>
<stop offset="1" stop-color="#FFA700"/>
</linearGradient>
<linearGradient id="paint4_linear_272_15236" x1="190.08" y1="62.1822" x2="151.948" y2="40.8145" gradientUnits="userSpaceOnUse">
<stop stop-color="#FF5607"/>
<stop offset="1" stop-color="#FFA700"/>
</linearGradient>
</defs>
</svg>
